<svg id="Layer_1" data-name="Layer 1" xmlns="http://www.w3.org/2000/svg" xmlns:xlink="http://www.w3.org/1999/xlink" viewBox="0 0 462 531.02">
  <defs>
    <style>
      .cls-1, .cls-2, .cls-3, .cls-4, .cls-5, .cls-6 {
        stroke: #000;
      }

      .cls-1, .cls-2, .cls-3, .cls-4, .cls-5 {
        stroke-linecap: round;
        stroke-linejoin: round;
      }

      .cls-1 {
        fill: url(#linear-gradient);
      }

      .cls-2 {
        fill: url(#linear-gradient-2);
      }

      .cls-3 {
        fill: url(#linear-gradient-3);
      }

      .cls-4 {
        fill: url(#linear-gradient-4);
      }

      .cls-5 {
        fill: url(#linear-gradient-5);
      }

      .cls-6 {
        font-size: 87px;
        fill: #0f3d5b;
        stroke-miterlimit: 10;
        stroke-width: 0.5px;
        font-family: AstronBoyVideo, Astron Boy Video;
      }
    </style>
    <linearGradient id="linear-gradient" x1="231" y1="248.52" x2="231" y2="35.52" gradientUnits="userSpaceOnUse">
      <stop offset="0" stop-color="#0f3d5b"/>
      <stop offset="0.1" stop-color="#0e3e5e"/>
      <stop offset="0.2" stop-color="#0d4369"/>
      <stop offset="0.28" stop-color="#0a4b7b"/>
      <stop offset="0.37" stop-color="#065595"/>
      <stop offset="0.45" stop-color="#0263b5"/>
      <stop offset="0.47" stop-color="#0067bf"/>
      <stop offset="0.51" stop-color="#065aa2"/>
      <stop offset="0.57" stop-color="#0d4b7f"/>
      <stop offset="0.64" stop-color="#133e63"/>
      <stop offset="0.71" stop-color="#18344d"/>
      <stop offset="0.79" stop-color="#1b2d3d"/>
      <stop offset="0.88" stop-color="#1d2934"/>
      <stop offset="1" stop-color="#1e2831"/>
    </linearGradient>
    <linearGradient id="linear-gradient-2" x1="231" y1="178.52" x2="231" y2="0.52" xlink:href="#linear-gradient"/>
    <linearGradient id="linear-gradient-3" x1="231" y1="107.52" x2="231" y2="0.5" gradientUnits="userSpaceOnUse">
      <stop offset="0" stop-color="#0f3d5b"/>
      <stop offset="0.33" stop-color="#103b58"/>
      <stop offset="0.62" stop-color="#14364d"/>
      <stop offset="0.89" stop-color="#1a2d3b"/>
      <stop offset="1" stop-color="#1e2831"/>
    </linearGradient>
    <linearGradient id="linear-gradient-4" x1="231" y1="319.52" x2="231" y2="71.52" xlink:href="#linear-gradient"/>
    <linearGradient id="linear-gradient-5" x1="230" y1="327.54" x2="230" y2="434.56" gradientUnits="userSpaceOnUse">
      <stop offset="0.03" stop-color="#0f3d5b"/>
      <stop offset="0.59" stop-color="#193040"/>
      <stop offset="1" stop-color="#1e2831"/>
    </linearGradient>
  </defs>
  <title>charesh</title>
  <polygon class="cls-1" points="54 35.52 36 53.52 231 248.52 426 53.52 408 35.52 231 213.52 54 35.52"/>
  <polygon class="cls-2" points="72 17.52 231 178.52 390 18.52 373 0.52 231 142.52 89 0.52 72 17.52"/>
  <polygon class="cls-3" points="124.5 0.5 337.5 0.54 230.48 107.52 124.5 0.5"/>
  <polygon class="cls-4" points="18.5 71.52 0.5 89.52 230.5 319.52 461.5 88.52 443.5 71.52 230.5 284.52 18.5 71.52"/>
  <polygon class="cls-5" points="336.5 434.56 123.5 434.52 230.52 327.54 336.5 434.56"/>
  <text class="cls-6" transform="translate(102.01 512.79)">Charesh</text>
</svg>
